<?xml version="1.0" encoding="UTF-8"?>
<!DOCTYPE svg PUBLIC "-//W3C//DTD SVG 1.1//EN" "http://www.w3.org/Graphics/SVG/1.1/DTD/svg11.dtd">
<svg version="1.1" xmlns="http://www.w3.org/2000/svg" xmlns:xlink="http://www.w3.org/1999/xlink" x="0" y="0" width="92" height="92" viewBox="0, 0, 92, 92">
  <g id="レイヤー_1" transform="translate(-154, -204)">
    <path d="M155.5,205.5 L245.5,205.5 L245.5,295.5 L155.5,295.5 L155.5,205.5 z" fill-opacity="0" stroke="#000000" stroke-width="1"/>
    <path d="M170.5,240.5 L180.5,240.5 L180.5,265.5 L170.5,265.5 L170.5,240.5 z" fill-opacity="0" stroke="#000000" stroke-width="1"/>
    <g>
      <path d="M205.5,230.5 L195.5,230.5 L195.5,215.5 L205.5,215.5 L205.5,230.5 z" fill="#000000"/>
      <path d="M205.5,230.5 L195.5,230.5 L195.5,215.5 L205.5,215.5 L205.5,230.5 z" fill-opacity="0" stroke="#000000" stroke-width="1"/>
    </g>
    <g>
      <path d="M230.5,285.5 L220.5,285.5 L220.5,245.5 L230.5,245.5 L230.5,285.5 z" fill="#000000"/>
      <path d="M230.5,285.5 L220.5,285.5 L220.5,245.5 L230.5,245.5 L230.5,285.5 z" fill-opacity="0" stroke="#000000" stroke-width="1"/>
    </g>
    <path d="M225.5,245.5 L225.5,235.5" fill-opacity="0" stroke="#000000" stroke-width="1"/>
    <path d="M175.5,280.5 L175.5,265.5" fill-opacity="0" stroke="#000000" stroke-width="1"/>
  </g>
</svg>
