<?xml version="1.0" encoding="UTF-8"?>
<!DOCTYPE svg PUBLIC "-//W3C//DTD SVG 1.1//EN" "http://www.w3.org/Graphics/SVG/1.1/DTD/svg11.dtd">
<svg version="1.1" xmlns="http://www.w3.org/2000/svg" xmlns:xlink="http://www.w3.org/1999/xlink" x="0" y="0" width="92" height="92" viewBox="0, 0, 92, 92">
  <g id="レイヤー_1" transform="translate(-29, -204)">
    <path d="M30.5,205.5 L120.5,205.5 L120.5,295.5 L30.5,295.5 L30.5,205.5 z" fill-opacity="0" stroke="#000000" stroke-width="1"/>
    <g>
      <path d="M45.5,235.5 L55.5,235.5 L55.5,260.5 L45.5,260.5 L45.5,235.5 z" fill="#000000"/>
      <path d="M45.5,235.5 L55.5,235.5 L55.5,260.5 L45.5,260.5 L45.5,235.5 z" fill-opacity="0" stroke="#000000" stroke-width="1"/>
    </g>
    <path d="M80.5,285.5 L70.5,285.5 L70.5,270.5 L80.5,270.5 L80.5,285.5 z" fill-opacity="0" stroke="#000000" stroke-width="1"/>
    <path d="M105.5,255.5 L95.5,255.5 L95.5,215.5 L105.5,215.5 L105.5,255.5 z" fill-opacity="0" stroke="#000000" stroke-width="1"/>
    <path d="M50.5,235.5 L50.5,220.5" fill-opacity="0" stroke="#000000" stroke-width="1"/>
    <path d="M100.5,265.5 L100.5,255.5" fill-opacity="0" stroke="#000000" stroke-width="1"/>
  </g>
</svg>
