<?xml version="1.0" encoding="UTF-8"?>
<!DOCTYPE svg PUBLIC "-//W3C//DTD SVG 1.1//EN" "http://www.w3.org/Graphics/SVG/1.1/DTD/svg11.dtd">
<svg version="1.1" xmlns="http://www.w3.org/2000/svg" xmlns:xlink="http://www.w3.org/1999/xlink" x="0" y="0" width="92" height="92" viewBox="0, 0, 92, 92">
  <g id="レイヤー_1" transform="translate(-154, -354)">
    <path d="M155.5,355.5 L245.5,355.5 L245.5,445.5 L155.5,445.5 L155.5,355.5 z" fill-opacity="0" stroke="#000000" stroke-width="1"/>
    <g>
      <path d="M170.5,365.5 L180.5,365.5 L180.5,395.5 L170.5,395.5 L170.5,365.5 z" fill="#000000"/>
      <path d="M170.5,365.5 L180.5,365.5 L180.5,395.5 L170.5,395.5 L170.5,365.5 z" fill-opacity="0" stroke="#000000" stroke-width="1"/>
    </g>
    <g>
      <path d="M205.5,410.5 L195.5,410.5 L195.5,390.5 L205.5,390.5 L205.5,410.5 z" fill="#000000"/>
      <path d="M205.5,410.5 L195.5,410.5 L195.5,390.5 L205.5,390.5 L205.5,410.5 z" fill-opacity="0" stroke="#000000" stroke-width="1"/>
    </g>
    <g>
      <path d="M230.5,435.5 L220.5,435.5 L220.5,415.5 L230.5,415.5 L230.5,435.5 z" fill="#000000"/>
      <path d="M230.5,435.5 L220.5,435.5 L220.5,415.5 L230.5,415.5 L230.5,435.5 z" fill-opacity="0" stroke="#000000" stroke-width="1"/>
    </g>
    <path d="M200.5,420.5 L200.5,410.5" fill-opacity="0" stroke="#000000" stroke-width="1"/>
    <path d="M225.5,415.5 L225.5,405.5" fill-opacity="0" stroke="#000000" stroke-width="1"/>
  </g>
</svg>
