<?xml version="1.0" encoding="UTF-8"?>
<!DOCTYPE svg PUBLIC "-//W3C//DTD SVG 1.1//EN" "http://www.w3.org/Graphics/SVG/1.1/DTD/svg11.dtd">
<svg version="1.1" xmlns="http://www.w3.org/2000/svg" xmlns:xlink="http://www.w3.org/1999/xlink" x="0" y="0" width="92" height="92" viewBox="0, 0, 92, 92">
  <g id="レイヤー_1" transform="translate(-29, -504)">
    <path d="M30.5,505.5 L120.5,505.5 L120.5,595.5 L30.5,595.5 L30.5,505.5 z" fill-opacity="0" stroke="#000000" stroke-width="1"/>
    <g>
      <path d="M40.5,530.5 L50.5,530.5 L50.5,570.5 L40.5,570.5 L40.5,530.5 z" fill="#000000"/>
      <path d="M40.5,530.5 L50.5,530.5 L50.5,570.5 L40.5,570.5 L40.5,530.5 z" fill-opacity="0" stroke="#000000" stroke-width="1"/>
    </g>
    <path d="M80.5,570.5 L70.5,570.5 L70.5,530.5 L80.5,530.5 L80.5,570.5 z" fill-opacity="0" stroke="#000000" stroke-width="1"/>
    <path d="M75.5,530.5 L75.5,520.5" fill-opacity="0" stroke="#000000" stroke-width="1"/>
    <path d="M95.5,548.5 L85.5,548.5" fill-opacity="0" stroke="#000000" stroke-width="1"/>
    <path d="M95.5,552.5 L85.5,552.5" fill-opacity="0" stroke="#000000" stroke-width="1"/>
    <path d="M65.5,550.5 L55.5,550.5" fill-opacity="0" stroke="#000000" stroke-width="1"/>
    <path d="M60.5,555.5 L60.5,545.5" fill-opacity="0" stroke="#000000" stroke-width="1"/>
    <path d="M110.5,530.5 L100.5,530.5" fill-opacity="0" stroke="#000000" stroke-width="1"/>
    <path d="M105.5,580.5 L105.5,520.5" fill-opacity="0" stroke="#000000" stroke-width="1"/>
    <path d="M75.5,580.5 L75.5,570.5" fill-opacity="0" stroke="#000000" stroke-width="1"/>
    <path d="M45.5,580.5 L45.5,570.5" fill-opacity="0" stroke="#000000" stroke-width="1"/>
    <path d="M45.5,530.5 L45.5,520.5" fill-opacity="0" stroke="#000000" stroke-width="1"/>
  </g>
</svg>
