<?xml version="1.0" encoding="UTF-8"?>
<!DOCTYPE svg PUBLIC "-//W3C//DTD SVG 1.1//EN" "http://www.w3.org/Graphics/SVG/1.1/DTD/svg11.dtd">
<svg version="1.1" xmlns="http://www.w3.org/2000/svg" xmlns:xlink="http://www.w3.org/1999/xlink" x="0" y="0" width="92" height="92" viewBox="0, 0, 92, 92">
  <g id="レイヤー_1" transform="translate(-404, -354)">
    <path d="M405.5,355.5 L495.5,355.5 L495.5,445.5 L405.5,445.5 L405.5,355.5 z" fill-opacity="0" stroke="#000000" stroke-width="1"/>
    <g>
      <path d="M440.5,405.5 L430.5,405.5 L430.5,400.5 L440.5,400.5 L440.5,405.5 z" fill="#FFFFFF"/>
      <path d="M440.5,405.5 L430.5,405.5 L430.5,400.5 L440.5,400.5 L440.5,405.5 z" fill-opacity="0" stroke="#000000" stroke-width="1"/>
    </g>
    <path d="M425.5,405.5 L425.5,385.5" fill-opacity="0" stroke="#000000" stroke-width="1"/>
    <path d="M435.5,435.5 L435.5,405.5" fill-opacity="0" stroke="#000000" stroke-width="1"/>
    <path d="M420.5,395.5 L420.5,375.5" fill-opacity="0" stroke="#000000" stroke-width="1"/>
    <path d="M415.5,385.5 L415.5,365.5" fill-opacity="0" stroke="#000000" stroke-width="1"/>
    <path d="M450.5,445.5 L450.5,355.5" fill-opacity="0" stroke="#000000" stroke-width="1" stroke-dasharray="3,2"/>
    <g>
      <path d="M485.5,375.5 L475.5,375.5 L475.5,370.5 L485.5,370.5 L485.5,375.5 z" fill="#000000"/>
      <path d="M485.5,375.5 L475.5,375.5 L475.5,370.5 L485.5,370.5 L485.5,375.5 z" fill-opacity="0" stroke="#000000" stroke-width="1"/>
    </g>
    <path d="M480.5,410.5 L480.5,375.5" fill-opacity="0" stroke="#000000" stroke-width="1"/>
    <path d="M470.5,400.5 L470.5,380.5" fill-opacity="0" stroke="#000000" stroke-width="1"/>
    <path d="M465.5,410.5 L465.5,390.5" fill-opacity="0" stroke="#000000" stroke-width="1"/>
    <path d="M460.5,420.5 L460.5,400.5" fill-opacity="0" stroke="#000000" stroke-width="1"/>
  </g>
</svg>
